PathFileType        4      (X/Y/Z)      C:\Users\pc\Desktop\IMUTRC\Sujet_02\Sujet_02_Tpose.trc         
DataRate	CameraRate	NumFrames	NumMarkers	Units	OrigDataRate	OrigDataStartFrame	OrigNumFrames
60.0	60.0	4	64	mm	60.0	39	155
Frame#	Time	pHipOrigin			pRightASI			pLeftASI			pRightCSI			pLeftCSI			pRightIschialTub			pLeftIschialTub			pSacrum			pL5SpinalProcess			pL3SpinalProcess			pT12SpinalProcess			pIJ			pT4SpinalProcess			pT8SpinalProcess			pPX			pC7SpinalProcess			pTopOfHead			pRightAuricularis			pLeftAuricularis			pBackOfHead			pRightAcromion			pLeftAcromion			pRightArmLatEpicondyle			pRightArmMedEpicondyle			pLeftArmLatEpicondyle			pLeftArmMedEpicondyle			pRightUlnarStyloid			pRightRadialStyloid			pRightOlecranon			pLeftUlnarStyloid			pLeftRadialStyloid			pLeftOlecranon			pRightTopOfHand			pRightPinky			pRightBallHand			pLeftTopOfHand			pLeftPinky			pLeftBallHand			pRightGreaterTrochanter			pRightKneeLatEpicondyle			pRightKneeMedEpicondyle			pRightPatella			pLeftGreaterTrochanter			pLeftKneeLatEpicondyle			pLeftKneeMedEpicondyle			pLeftPatella			pRightTibialTub			pRightLatMalleolus			pRightMedMalleolus			pLeftTibialTub			pLeftLatMalleolus			pLeftMedMalleolus			pRightHeelFoot			pRightFirstMetatarsal			pRightFifthMetatarsal			pRightPivotFoot			pRightHeelCenter			pRightToe			pLeftHeelFoot			pLeftFirstMetatarsal			pLeftFifthMetatarsal			pLeftPivotFoot			pLeftHeelCenter			pLeftToe			
		X1	Y1	Z1	X2	Y2	Z2	X3	Y3	Z3	X4	Y4	Z4	X5	Y5	Z5	X6	Y6	Z6	X7	Y7	Z7	X8	Y8	Z8	X9	Y9	Z9	X10	Y10	Z10	X11	Y11	Z11	X12	Y12	Z12	X13	Y13	Z13	X14	Y14	Z14	X15	Y15	Z15	X16	Y16	Z16	X17	Y17	Z17	X18	Y18	Z18	X19	Y19	Z19	X20	Y20	Z20	X21	Y21	Z21	X22	Y22	Z22	X23	Y23	Z23	X24	Y24	Z24	X25	Y25	Z25	X26	Y26	Z26	X27	Y27	Z27	X28	Y28	Z28	X29	Y29	Z29	X30	Y30	Z30	X31	Y31	Z31	X32	Y32	Z32	X33	Y33	Z33	X34	Y34	Z34	X35	Y35	Z35	X36	Y36	Z36	X37	Y37	Z37	X38	Y38	Z38	X39	Y39	Z39	X40	Y40	Z40	X41	Y41	Z41	X42	Y42	Z42	X43	Y43	Z43	X44	Y44	Z44	X45	Y45	Z45	X46	Y46	Z46	X47	Y47	Z47	X48	Y48	Z48	X49	Y49	Z49	X50	Y50	Z50	X51	Y51	Z51	X52	Y52	Z52	X53	Y53	Z53	X54	Y54	Z54	X55	Y55	Z55	X56	Y56	Z56	X57	Y57	Z57	X58	Y58	Z58	X59	Y59	Z59	X60	Y60	Z60	X61	Y61	Z61	X62	Y62	Z62	X63	Y63	Z63	X64	Y64	Z64	
39	0.633	-4420.02353	1100.2248000000004	-6470.24349	-4335.23134	1190.5469200000005	-6323.00922	-4364.95469	1222.3439900000005	-6608.72204	-4385.69191	1263.1272000000004	-6336.14279	-4410.11575	1289.1639300000004	-6570.24298	-4472.32741	1032.7136300000004	-6412.40968	-4484.53933	1045.6167900000005	-6529.45978	-4490.99091	1121.4228500000004	-6460.56612	-4452.97267	1218.6573800000006	-6454.57536	-4438.68703	1333.8641600000005	-6450.88875	-4435.46124	1439.6239900000005	-6449.96709	-4259.19486	1645.6137200000005	-6466.55687	-4417.02816	1638.2404900000004	-6456.18826	-4431.08338	1545.1534100000003	-6452.04082	-4273.01967	1518.1950200000006	-6461.25736	-4405.50748	1692.8485100000005	-6457.10991	-4347.90408	1913.3542900000004	-6487.52451	-4326.93645	1833.8616100000004	-6415.86588	-4359.65518	1818.6543200000006	-6540.0588	-4392.3739	1825.3363100000004	-6464.94398	-4391.68266	1682.9407200000005	-6254.8068	-4411.72864	1674.6458300000004	-6660.5651	-4393.52597	1557.8261500000006	-5986.6054	-4342.37416	1520.4991600000005	-6000.66063	-4358.04228	1528.7940400000005	-6917.24581	-4299.51723	1512.2042700000004	-6894.8957	-4303.20385	1488.0108400000004	-5718.17359	-4327.39728	1540.3147200000005	-5708.95705	-4358.96394	1515.4300600000004	-6005.2689	-4255.04742	1454.6008700000004	-7176.23067	-4295.13938	1494.6928400000004	-7190.74672	-4312.65081	1502.5269000000005	-6892.36115	-4312.65081	1517.9646100000002	-5526.23909	-4282.0058	1489.6237400000005	-5607.11425	-4292.37441	1509.6697200000006	-5680.61618	-4255.96907	1464.5086600000004	-7369.54765	-4226.24572	1452.0663200000004	-7284.52505	-4248.59584	1474.1860300000005	-7214.24891	-4409.42451	1056.4462200000005	-6295.59	-4446.06027	610.5959600000003	-6326.23501	-4447.21233	609.9047200000003	-6412.87051	-4398.13424	609.6743100000003	-6373.00896	-4448.59482	1081.1004800000005	-6644.43615	-4476.93568	634.0981500000005	-6627.84637	-4457.12012	629.2594600000004	-6543.515	-4419.10188	631.3331800000004	-6593.97557	-4385.4615	570.0431700000004	-6372.77855	-4454.81598	145.1605500000004	-6333.83865	-4455.73764	144.6997200000004	-6402.27148	-4407.81161	590.7804000000004	-6599.27509	-4493.75588	169.1235600000004	-6638.21498	-4477.62693	165.20653000000038	-6571.85587	-4511.26731	31.797070000000392	-6393.28535	-4326.70604	9.446960000000391	-6396.05032	-4346.98243	0.46083000000038643	-6310.7973	-4312.65081	1.3824800000003887	-6349.27636	-4469.79286	24.42384000000039	-6384.29923	-4230.62358	1.1520700000003876	-6330.38245	-4556.65878	66.1286900000004	-6568.39967	-4385.23108	7.373230000000405	-6610.56535	-4426.2447	7.8340600000004095	-6688.21473	-4384.30943	-0.46082999999959223	-6659.41303	-4520.71426	51.1518100000004	-6587.29358	-4309.88585	0.6912400000004101	-6698.58334	
40	0.65	-4419.79312	1100.2248000000004	-6470.24349	-4335.00092	1190.5469200000005	-6323.00922	-4364.95469	1222.3439900000005	-6608.72204	-4385.4615	1263.1272000000004	-6336.14279	-4409.88534	1289.1639300000004	-6570.24298	-4472.32741	1032.7136300000004	-6412.40968	-4484.53933	1045.6167900000005	-6529.45978	-4490.7605	1121.4228500000004	-6460.56612	-4452.74226	1218.6573800000006	-6454.57536	-4438.68703	1333.8641600000005	-6450.88875	-4435.23083	1439.6239900000005	-6449.96709	-4258.96445	1645.6137200000005	-6467.0177	-4416.79774	1638.2404900000004	-6456.18826	-4430.85297	1545.3838200000005	-6452.04082	-4273.01967	1518.1950200000006	-6461.48777	-4405.27706	1692.8485100000005	-6457.34033	-4347.90408	1913.3542900000004	-6487.52451	-4326.93645	1833.8616100000004	-6416.0963	-4359.42476	1818.6543200000006	-6540.28921	-4392.3739	1825.3363100000004	-6465.17439	-4391.22184	1683.1711400000004	-6255.03721	-4411.95906	1674.6458300000004	-6660.79551	-4393.06514	1557.8261500000006	-5986.83582	-4341.91333	1520.7295700000004	-6000.89104	-4358.2727	1528.7940400000005	-6917.47623	-4299.74765	1512.4346800000005	-6895.12611	-4302.51261	1488.0108400000004	-5718.40401	-4326.70604	1540.5451400000004	-5709.18746	-4358.50311	1515.6604700000005	-6005.49931	-4255.96907	1454.3704600000005	-7176.6915	-4295.83062	1494.6928400000004	-7190.97714	-4312.88122	1502.7573100000004	-6892.59156	-4311.72915	1518.1950200000003	-5526.4695	-4281.08415	1489.6237400000005	-5607.34466	-4291.68317	1509.9001300000004	-5680.84659	-4256.89072	1464.2782400000006	-7370.00848	-4227.39779	1451.6055000000003	-7284.75546	-4249.51749	1473.9556100000004	-7214.47932	-4409.42451	1056.4462200000005	-6295.59	-4445.82985	610.5959600000003	-6326.23501	-4446.98192	609.9047200000003	-6412.64009	-4398.13424	609.6743100000003	-6373.00896	-4448.3644	1081.1004800000005	-6644.43615	-4476.70527	634.0981500000005	-6627.84637	-4457.12012	629.2594600000004	-6543.515	-4419.10188	631.5636000000004	-6593.97557	-4385.4615	570.0431700000004	-6372.77855	-4454.81598	145.3909600000004	-6333.83865	-4455.73764	144.6997200000004	-6402.27148	-4407.81161	590.7804000000004	-6599.27509	-4493.75588	169.1235600000004	-6638.21498	-4477.62693	165.20653000000038	-6571.85587	-4511.26731	31.797070000000392	-6393.28535	-4326.70604	9.446960000000391	-6396.05032	-4346.98243	0.46083000000038643	-6310.7973	-4312.65081	1.3824800000003887	-6349.27636	-4469.79286	24.42384000000039	-6384.29923	-4230.62358	1.1520700000003876	-6330.38245	-4556.65878	66.1286900000004	-6568.39967	-4385.23108	7.373230000000405	-6610.56535	-4426.2447	7.8340600000004095	-6688.21473	-4384.30943	-0.46082999999959223	-6659.41303	-4520.71426	51.1518100000004	-6587.29358	-4309.88585	0.6912400000004101	-6698.58334	
41	0.667	-4419.79312	1100.2248000000004	-6470.24349	-4334.77051	1190.5469200000005	-6323.00922	-4364.95469	1222.3439900000005	-6608.72204	-4385.00067	1263.1272000000004	-6336.14279	-4409.88534	1289.1639300000004	-6570.24298	-4472.097	1032.7136300000004	-6412.40968	-4484.30892	1045.6167900000005	-6529.45978	-4490.53009	1121.4228500000004	-6460.56612	-4452.51185	1218.8877900000005	-6454.57536	-4438.45662	1333.8641600000005	-6450.88875	-4435.00041	1439.6239900000005	-6449.96709	-4258.96445	1645.6137200000005	-6467.24811	-4416.56733	1638.2404900000004	-6456.41867	-4430.62256	1545.3838200000005	-6452.04082	-4272.78926	1518.1950200000006	-6461.71819	-4405.04665	1692.8485100000005	-6457.34033	-4347.67367	1913.3542900000004	-6487.75492	-4326.70604	1833.8616100000004	-6416.32671	-4359.42476	1818.6543200000006	-6540.51963	-4392.14349	1825.3363100000004	-6465.4048	-4390.99142	1683.1711400000004	-6255.26763	-4411.95906	1674.8762500000005	-6660.79551	-4392.3739	1558.0565700000004	-5986.83582	-4341.4525	1520.9599800000005	-6000.89104	-4358.2727	1529.0244600000005	-6917.70664	-4299.74765	1512.6650900000004	-6895.35653	-4301.59096	1488.2412600000005	-5718.63442	-4325.78438	1541.0059600000004	-5709.41788	-4358.04228	1515.6604700000005	-6005.49931	-4256.89072	1454.1400500000004	-7176.92191	-4296.52186	1494.6928400000004	-7191.20755	-4313.11164	1502.7573100000004	-6892.82198	-4310.57709	1518.6558500000003	-5526.69991	-4280.16249	1490.0845600000005	-5607.57508	-4290.76152	1510.1305400000006	-5681.07701	-4258.27321	1464.0478300000004	-7370.2389	-4228.54985	1451.1446700000004	-7285.21629	-4250.43914	1473.4947900000004	-7214.94015	-4409.19409	1056.4462200000005	-6295.59	-4445.82985	610.5959600000003	-6326.23501	-4446.98192	609.9047200000003	-6412.64009	-4397.90383	609.6743100000003	-6373.00896	-4448.3644	1081.3308900000004	-6644.43615	-4476.70527	634.0981500000005	-6627.84637	-4457.12012	629.2594600000004	-6543.515	-4419.10188	631.3331800000004	-6593.97557	-4385.23108	570.0431700000004	-6372.77855	-4454.81598	145.3909600000004	-6333.83865	-4455.73764	144.6997200000004	-6402.27148	-4407.81161	590.7804000000004	-6599.27509	-4493.75588	169.1235600000004	-6638.21498	-4477.62693	165.20653000000038	-6571.85587	-4511.26731	31.797070000000392	-6393.28535	-4326.70604	9.446960000000391	-6396.05032	-4346.98243	0.46083000000038643	-6310.7973	-4312.65081	1.3824800000003887	-6349.27636	-4469.79286	24.654250000000392	-6384.29923	-4230.62358	1.1520700000003876	-6330.38245	-4556.65878	66.1286900000004	-6568.39967	-4385.23108	7.373230000000405	-6610.56535	-4426.2447	7.8340600000004095	-6688.21473	-4384.30943	-0.46082999999959223	-6659.41303	-4520.71426	51.1518100000004	-6587.29358	-4309.88585	0.6912400000004101	-6698.58334	
42	0.683	-4419.56271	1100.2248000000004	-6470.24349	-4334.5401	1190.5469200000005	-6323.00922	-4364.72428	1222.1135800000004	-6608.72204	-4384.77026	1263.1272000000004	-6336.14279	-4409.65492	1289.1639300000004	-6570.24298	-4471.86659	1032.7136300000004	-6412.17927	-4484.30892	1045.6167900000005	-6529.22936	-4490.53009	1121.4228500000004	-6460.3357	-4452.28143	1218.8877900000005	-6454.57536	-4438.2262	1333.8641600000005	-6450.88875	-4434.77	1439.6239900000005	-6449.96709	-4258.50362	1645.6137200000005	-6467.47852	-4416.33692	1638.2404900000004	-6456.41867	-4430.39214	1545.3838200000005	-6452.04082	-4272.55885	1517.9646100000004	-6461.9486	-4404.81624	1692.8485100000005	-6457.57074	-4347.67367	1913.3542900000004	-6487.98533	-4326.47562	1834.0920300000005	-6416.55713	-4359.19435	1818.6543200000006	-6540.75004	-4391.91308	1825.3363100000004	-6465.63522	-4390.5306	1683.4015500000005	-6255.26763	-4411.95906	1674.8762500000005	-6661.02592	-4391.91308	1558.2869800000005	-5986.83582	-4340.76126	1520.9599800000005	-6001.12146	-4358.50311	1529.2548700000004	-6917.93706	-4299.97806	1512.8955100000005	-6895.58694	-4300.89972	1488.7020800000005	-5718.86483	-4324.86273	1541.2363800000005	-5709.64829	-4357.58145	1515.8908800000004	-6005.72973	-4258.04279	1453.6792200000004	-7177.38274	-4297.44351	1494.6928400000004	-7191.43796	-4313.57246	1502.7573100000004	-6893.05239	-4309.65543	1518.8862600000002	-5526.93033	-4279.24084	1490.3149800000006	-5607.57508	-4289.83986	1510.3609600000004	-5681.30742	-4259.65569	1464.0478300000004	-7370.69972	-4229.93234	1450.4534300000005	-7285.67712	-4251.3608	1473.0339600000004	-7215.17056	-4408.73327	1056.4462200000005	-6295.35959	-4445.59944	610.5959600000003	-6326.00459	-4446.75151	610.1351400000003	-6412.64009	-4397.67342	609.9047200000003	-6373.00896	-4448.3644	1081.3308900000004	-6644.20573	-4476.70527	634.0981500000005	-6627.84637	-4456.8897	629.2594600000004	-6543.515	-4418.87146	631.3331800000004	-6593.97557	-4385.23108	570.0431700000004	-6372.77855	-4454.81598	145.3909600000004	-6333.83865	-4455.73764	144.6997200000004	-6402.27148	-4407.81161	590.7804000000004	-6599.5055	-4493.75588	169.1235600000004	-6638.21498	-4477.62693	165.20653000000038	-6571.85587	-4511.26731	31.797070000000392	-6393.28535	-4326.70604	9.446960000000391	-6396.05032	-4346.98243	0.46083000000038643	-6310.7973	-4312.65081	1.3824800000003887	-6349.27636	-4469.79286	24.654250000000392	-6384.29923	-4230.62358	1.1520700000003876	-6330.38245	-4556.65878	66.1286900000004	-6568.39967	-4385.23108	7.373230000000405	-6610.56535	-4426.2447	7.8340600000004095	-6688.21473	-4384.30943	-0.46082999999959223	-6659.41303	-4520.71426	51.1518100000004	-6587.52399	-4309.88585	0.6912400000004101	-6698.58334	
